<svg xmlns="http://www.w3.org/2000/svg" viewBox="0 0 115.14 125.03"><defs><style>.cls-1{fill:#fd7ecb;}.cls-2{fill:#2161ad;}.cls-3{fill:#fd7fcb;}.cls-4{fill:#fbfcfd;}</style></defs><title>Ресурс 13</title><g id="Слой_2" data-name="Слой 2"><g id="Layer_1" data-name="Layer 1"><path class="cls-1" d="M103.15,77A46.65,46.65,0,0,0,94,38.84L62.05,76.19,53,53,38.58,54.3s-1.23,40,11.85,53.72c12.43,13.09,30.07-5.33,30.07-5.33S101.38,85.88,103.15,77Z"/><path class="cls-2" d="M22.29.25c4.9.92,9.92,6.26,10.81,11.23C31.37,14,31.2,16.08,25.21,18,32.68,44.87,34.67,51,21,71c-3.42,4.4-4.14,13.11-8.95,12.71C-5,77.45,2.69,61.39,4.56,50.89,2.3,47.62-1.34,44.66.5,40.4c2-5.49,6.06-9.07,7.92-14.4C8.32,15,8.71-2.29,22.29.25Z"/><path class="cls-3" d="M59.13,53.34C59.81,38.27,41,49.4,37.33,37.47,46.47,35,38.17,18,33.08,11.2c-7.76,7.53-14,3.51-12.16,10.67-.52.15-4.15,1.82-3.12,5,.4,2.05,1.8,3.67,5.11,3.41a14.4,14.4,0,0,1,2.23,7.35c-.47,4.93-2.5,6.23-5.62,9.23-18.12,19-16.88,57.87,1.92,72.65C41,112.72,52.18,86.56,66.2,65.33,66.07,65.1,59.25,53.71,59.13,53.34Z"/><path class="cls-4" d="M41.72,42.26s7.48-1.75,13.63,2c3.93,3,12,19.71,12,19.71S62.7,75.12,62.05,76.19c-6.81,11.26-9,8.51-17,18.75-1.88,2.39-9.24,9.2-9.24,9.2L21.12,74.47s-10,.91-14,.5c.13-6.66,2.54-17.62,12.41-28.15C23.92,50.33,29,54.64,34,55.91,41.62,57.84,42.16,52,42.48,48A11.2,11.2,0,0,0,41.72,42.26Z"/><path class="cls-2" d="M63.21,89.14C53.72,83.08,48.2,69.42,47,65.33,43,51.38,54.94,22.06,64.39,22.4c6.56-1.55,10.88,7.85,15.67,6.06,3.43-3.27,3.55-9.64,5.41-14.12a1.66,1.66,0,0,1,2.2-1c7.32,3.2,16.66,17.88,19.77,23.91a2,2,0,0,1-1.11,2.9C96.82,42.92,90.22,42,97,54.72,109.29,77.52,78.92,85,63.21,89.14Z"/><path class="cls-3" d="M89.51,52.18c3.9-7.55-.84-10.22-6.76-5.21,1.08-12.33-6.33-4.21-10.22,1.37-5.41-19-7.61,17.84-7.61,17.84a589.53,589.53,0,0,0-43.48,53.29,24.42,24.42,0,0,0,24,4C59,118.89,63.78,106,72.22,94.16c7-13.64,18.69-26.72,22.49-41.12C95.12,49.81,89.23,54.45,89.51,52.18Z"/><path class="cls-4" d="M115,60.2c0,5.35,1.06,21.16-3,21.09-2.35,0-2.83-4-2.83-4s.46,13-.69,16.68c-.72,2.31-1.51,5.92-4.93,5.86-2.93,0-4-2.93-4-5.91q.22-23,.51-46.07c.11-8.52-.23-16.88-4.49-24.4-.93-1.64-2.66-4-2.66-4a13.62,13.62,0,0,1,4.52.89c8.88,3.56,15.5,9.66,17.06,21.09A113.45,113.45,0,0,1,115,60.2Z"/><polygon class="cls-3" points="34.44 13.24 40.98 20.72 35.92 25.02 34.44 13.24"/><path class="cls-4" d="M27.41,23.87a38.65,38.65,0,0,1,3.82-3c-.09-.23-.17-.46-.27-.69-1.06-2.3-2.89-3.64-4.08-3s-1.31,3-.25,5.33A8.58,8.58,0,0,0,27.41,23.87Z"/><path class="cls-4" d="M39.51,25l-7.6,4.69s2.59,3.49,5.87,1.6C40.44,29.77,39.51,25,39.51,25Z"/><path class="cls-2" d="M29.92,20.55c-.45-1-1.23-1.56-1.74-1.29s-.54,1.09-.23,2L29,21.05l-.67,1c.45.69,1.06,1,1.49.82S30.38,21.53,29.92,20.55Z"/></g></g></svg>