<svg xmlns="http://www.w3.org/2000/svg" viewBox="0 0 101.64 113.2"><defs><style>.cls-1{fill:#fff;}.cls-2{fill:#fe7dcb;}.cls-3{fill:#2161ad;}</style></defs><title>Ресурс 7</title><g id="Слой_2" data-name="Слой 2"><g id="Layer_1" data-name="Layer 1"><path class="cls-1" d="M67.84,36.43c9-6,24.76.4,20.65,12.9.44.21,19.29,7.83,8.48,22.72a13.71,13.71,0,0,1-7.27,6c.88,7.64-2.58,14.85-4.85,22.89-4.12,14.51-25.5,16.47-34.35,4.14-18.83,14.12-32.33-1.78-28.41-8.47C7.37,101.51-3.35,86.86,7,77.21c-16.13-17.87,8-26.62,16.26-17.51-2-5.84,11.54-13.48,14.83-19.11C44.21,30.17,60,31.78,67.84,36.43Z"/><ellipse class="cls-2" cx="74.54" cy="26.82" rx="26.6" ry="10.17" transform="translate(-4.56 22.5) rotate(-16.66)"/><path class="cls-3" d="M69.56,44.18C79.23,32.71,87.82,13.24,71.88,4L71.8,4C58-4,46.43,1.31,46.24,9.24c-.09,4.3,1.7,6.42,5.57,7.75s8.15-2.79,7-4c-.45-.46-2.63,1.57-4.46,1.33-1.43-.19-4.1-2.06-2.48-4.85,2.78-6.32,10.55-1.42,13,2.47,3.51,5.53-.09,10.72-3.93,14a28.6,28.6,0,0,1-4.62,3.19l.09.11Z"/><ellipse class="cls-2" cx="26.36" cy="68.36" rx="26.6" ry="10.17" transform="translate(-46.54 75.73) rotate(-74.69)"/><path class="cls-2" d="M34.85,29.11c-11,8.58-4.71,34.83,13.94,58.64s41.42,25.45,47.07,20.53c6.57-5.73,11.23-27.77-7.42-51.58S45.8,20.54,34.85,29.11Z"/><path class="cls-1" d="M56.91,61.77q1.61-.85,3.27-1.65c-2.91-5-7.46-7.74-10.72-6.23-3.56,1.64-4.27,7.73-1.64,13.69A61.36,61.36,0,0,1,56.91,61.77Z"/><path class="cls-3" d="M36.34,61.08C21.62,64,.43,62.18,0,43.76c0,0,0-.09,0-.09-.37-16,9.9-23.51,17-19.86,3.81,2,4.8,4.59,4.1,8.62s-6.37,5.8-6.84,4.22c-.19-.61,2.64-1.54,3.31-3.26.52-1.35.17-4.58-3.06-4.51-6.87-.62-6.32,8.56-4.1,12.59,3.16,5.74,9.43,5.09,14.18,3.31a28.71,28.71,0,0,0,5-2.51l.05.14Z"/><path class="cls-3" d="M94.8,101.34c2.17-.89,2.59-4.37,1.37-8.8-1.85-6.74-3.78-.37-2.36,4.57-3.52-3.5-9.64-5.54-7.49-1.5S92,102.5,94.8,101.34Z"/><path class="cls-3" d="M56.56,60.58c-1.14-2.48-3.26-3.93-4.74-3.25-1.26.58-1.64,2.52-1,4.61l3.42-.54-2.44,2.67C53,65.9,54.68,66.88,56,66.3,57.43,65.62,57.7,63.06,56.56,60.58Z"/></g></g></svg>