<svg xmlns="http://www.w3.org/2000/svg" viewBox="0 0 93.95 115.32"><defs><style>.cls-1{fill:#fe7dcb;}.cls-2{fill:#fff;}.cls-3{fill:#2161ad;}</style></defs><title>Ресурс 3</title><g id="Слой_2" data-name="Слой 2"><g id="Layer_1" data-name="Layer 1"><path class="cls-1" d="M11.41,53.94c6.81-1.6,12.72,23,12.72,23S.86,78,0,72c-.73-5.22,11.14-5.18,11.14-5.18S8.27,54.68,11.41,53.94Z"/><path class="cls-1" d="M55.41,108.41S35,120.28,34.78,112.9s19.52-8.21,19.52-8.21Z"/><path class="cls-1" d="M48.66,77.25S34,66.46,37.5,64.28,50.37,68.6,50.37,68.6s-6.57-9.93-2.84-11c5.64-1.67,13,12.95,13,12.95s-3.2-7.19.07-7.63c5.71-.77,6.11,17.84,6.11,17.84Z"/><path class="cls-2" d="M74.92,85.6A39.69,39.69,0,0,0,57.35,73.65C35.84,66.5,22.83,75.5,22.83,75.5c.27,1.17,5.5,21.33,21.85,30.27a34.38,34.38,0,0,0,15.13,3.81C61.47,100.21,67.21,91.85,74.92,85.6Z"/><path class="cls-3" d="M85.37,105.31A51.84,51.84,0,0,0,74.92,85.6c-8.06-1.45-18.48,10.31-15.11,24C72.9,110.13,85.37,105.31,85.37,105.31Z"/><circle class="cls-2" cx="70.81" cy="99.84" r="3.91"/><circle class="cls-3" cx="70.95" cy="100.45" r="1.97"/><ellipse class="cls-1" cx="83.53" cy="104.02" rx="3.66" ry="3.08" transform="translate(-21.55 21.83) rotate(-13.21)"/><ellipse class="cls-1" cx="82.15" cy="106.56" rx="3.08" ry="3.66" transform="translate(-50.72 127.79) rotate(-61.45)"/><path class="cls-1" d="M93.89,40.21c-2.13-6.67-26.22.87-26.22.87s11,20.51,16.54,18.18c4.85-2-1.28-12.21-1.28-12.21S94.87,43.29,93.89,40.21Z"/><path class="cls-1" d="M24.55,30.42s.31,23.62,6.75,20-3-21-3-21Z"/><path class="cls-1" d="M54.76,20.22s16.79,7,16.86,2.91S61.3,14.31,61.3,14.31s11.9.54,10.93-3.23c-1.46-5.69-17.8-4.51-17.8-4.51s7.82-1,6.52-4c-2.27-5.3-18.44,3.92-18.44,3.92Z"/><path class="cls-2" d="M34.11,2a39.55,39.55,0,0,1,19.28,9C70.57,25.69,69.52,41.48,69.52,41.48c-1.14.37-21.11,6.24-37.18-3.2a34.35,34.35,0,0,1-11.05-11C28.48,21,32.7,11.8,34.11,2Z"/><path class="cls-3" d="M11.83,3.13A51.78,51.78,0,0,1,34.11,2C43,16.05,33.05,26.17,21.29,27.25,14.1,16.3,11.83,3.13,11.83,3.13Z"/><circle class="cls-2" cx="24.01" cy="12.81" r="3.91"/><circle class="cls-3" cx="23.41" cy="13" r="1.97"/><ellipse class="cls-1" cx="13.27" cy="3.61" rx="3.08" ry="3.66" transform="translate(-0.47 4.2) rotate(-17.69)"/><ellipse class="cls-1" cx="12.11" cy="6.05" rx="3.08" ry="3.66" transform="translate(0.75 13.41) rotate(-59.45)"/></g></g></svg>