<svg xmlns="http://www.w3.org/2000/svg" viewBox="0 0 85.11 137.42"><defs><style>.cls-1{fill:#2161ad;}.cls-2{fill:#fdf9fc;}.cls-3{fill:#fd81cc;}</style></defs><title>Ресурс 10</title><g id="Слой_2" data-name="Слой 2"><g id="Layer_1" data-name="Layer 1"><path class="cls-1" d="M11.22,94.23c-2.14,5.83-3,10.48-3.68,18.67-.47,5.41-1.18,13.7-1.18,13.7s-3.23-8.1-3.56-9.17c-3.34-10.64-4.38-20,.78-30.3,1.83-3.63,3.29-7.3,4.82-11,2.34-5.65,7.09-8.72,12.65-10.48a52.62,52.62,0,0,1,10-2c2.89-.32,6,.25,7.14,3.35s-1.42,4.49-3.43,6.11c-3.05,2.45-6.67,3.05-10.36,3.18-2.28.08-3.05,1.21-4.38,2.92-3.2,4.15-2.76,7.92-1.1,12.42,2,5.32,1.49,7.25,1.58,12.93,0,1.62-.94,7.89-.94,7.89s-2-4.26-2.41-5.48c-1.8-5-3.08-7.83-4.8-12.86Z"/><path class="cls-2" d="M69.71,40.25l-4.83,7.56,11.27-3.67L66.1,54.48l15.18,2.79L65.79,59.75l19.32,6.68s-15,1.39-22.52.18c-3.5-.56-7,1-10.77.14C48.54,66,47.21,65,48.15,61.43c1.3-4.92,2.13-10,3.11-15,.34-1.73,1-3.19,3.05-2.47C59.76,45.94,69.71,40.25,69.71,40.25Z"/><path class="cls-2" d="M32.65,36.37c5.9,1,11.9,9.05,10.6,14.25a59.81,59.81,0,0,0-1.63,8.16c-.32,3-1.76,4.12-4.33,3-6.77-3-22-6.62-22.9-7.26l17-1c-4.73-3.12-12.74-8.7-12.61-9,0,0,13.07,2.1,13.3,1.69L23.37,37l12.5,5.1S33.27,37.72,32.65,36.37Z"/><path class="cls-2" d="M12.25,38s4.22-13.07,6.5-19.16c.64-1.72,2-2.64,5.14-1.44,3.37,1.29,4,3.33,2.75,5.29C23.72,27.42,12.25,38,12.25,38Z"/><path class="cls-1" d="M69.57,105.57c-.26,6.19-1.22,10.81-3.57,18.69-1.55,5.2-3.94,13.16-3.94,13.16s5.7-6.36,6.37-7.24c6.72-8.69,11-17,10.27-28.46-.25-4-.19-8-.16-12,0-6.1-2.94-10.66-7.09-14.31A47,47,0,0,0,63.63,70c-2.36-1.35-5.23-1.93-7.34.53s-.4,4.7.74,6.92c1.74,3.38,4.64,5.25,7.76,6.7,1.92.9,2.18,2.23,2.7,4.31,1.25,5-.49,8.36-3.54,11.94-3.61,4.23-3.89,6.2-6,11.45-.61,1.5-2,7.68-2,7.68s3.23-3.25,4-4.23c3.36-4,5.48-6.17,8.77-10.22Z"/><path class="cls-3" d="M58.58,42.12A27.36,27.36,0,0,1,61,46.75a37.21,37.21,0,0,1,2.29,17.89c-.27,2.28-2.05,10.57-6,13.9A27.48,27.48,0,0,1,53.11,81l-1.35,8.73-3.69-6.67s-2,.79-3,1.24S42,81.79,42,81.79l-5.16,4.77,1-8.2s-9.34-15-1.46-27c2.31-3.53,8.07-11.65,8.07-11.65s-4.95-6,1.21-14.6c-2.18-2.72-5.6-3.82-6.25-12-6.76,8.32-12.54,8.92-12.54,8.92l-7-4.59S19.49,5.93,33.09,3.53c5.75-5.8,12.67-4.24,15.27,3.12,6.86-.31,13.31,11,10.46,18.66C64.62,32,58.58,42.12,58.58,42.12Z"/><path class="cls-2" d="M38.64,74.66A3,3,0,0,0,44,76.25c-1.48-1.4-2.84-2.89-4.18-4.32A3,3,0,0,0,38.64,74.66Z"/><path class="cls-2" d="M49.8,79.5a3,3,0,0,0,3.89-1.79,3,3,0,0,0-.07-2.28c-1.91.69-3.86,1.24-5.73,1.79A3,3,0,0,0,49.8,79.5Z"/></g></g></svg>