<svg xmlns="http://www.w3.org/2000/svg" viewBox="0 0 123.64 134.8"><defs><style>.cls-1{fill:#fd7ecb;}.cls-2{fill:#fbfcfd;}.cls-3{fill:#2161ad;}</style></defs><title>Ресурс 9</title><g id="Слой_2" data-name="Слой 2"><g id="Layer_1" data-name="Layer 1"><path class="cls-1" d="M81.11,75.68,63,56,29.23,78,21.4,39.51,3.94,54.35S2.61,97.42,16.7,112.26c13.4,14.11,32.4-5.75,32.4-5.75Z"/><polygon class="cls-2" points="56.3 72.74 54.8 73.34 31.84 7.41 33.34 6.8 56.3 72.74"/><polygon class="cls-2" points="29.46 121.16 27.98 120.77 53.87 5.7 55.35 6.09 29.46 121.16"/><path class="cls-3" d="M114.33,42.91c-4.48,4.71-5.15,12.75,3.14,9.06-3.93,6.66-7.46,10.6-14.4,12.75-4.75,1.47-11.55-9.95-16-13.68-4.17-5,10.43-7.63,8.69-11.69a36.5,36.5,0,0,1-4-11c-2.68-3.63-8.08,11.11-12.46-.86-3.47-3.21-1.93-15.78,4.56-15.91,5.14-4.49,10-7.85,18.57-2.67,4,2.78,4.94,7.87,7.78,10.06,5.15,4,11.66-2.51,11.66-2.51s-6.78,12.26,1.72,10.39C123,31.3,121.11,36.5,114.33,42.91Z"/><path class="cls-3" d="M21.7,131.52c-2.67-1-4.18-2.56-3.72-5.67s2.47-4.21,5.24-4a14,14,0,0,0,2-.11c-2.19-5.4-4.45-10.55-6.39-15.84-4.75-13-9.09-26.15-8-40.53C11.73,52,17.08,41,26.56,32.27a250.77,250.77,0,0,1,20.66-17c1.37-1,2.24-1.65.89-3.77a8.3,8.3,0,0,1-.62-7.09C48.39,1.73,50-.37,52.74.05a5.4,5.4,0,0,1,4.85,5.89c-.16,4.77-1.7,8.93-5.31,12.08-4,3.5-8,7-11.72,10.9C25.72,44.37,20.29,64,21.06,85.5c.36,10,3.4,19.81,7.65,28.94a30,30,0,0,1,2,5.65C32.11,126,29.76,134.39,21.7,131.52Z"/><path class="cls-1" d="M82.85,134.79C55.32,135.25,28,85.27,38.14,72.94c-.32-4.54-.29-7.52,5.13-6.45-3-6.45-2.18-18.77,5-10.32,1.42,2,1.18,4.54,3.72,6.44,5.78-20,22.41-13.36,22.41-13.36a5.55,5.55,0,0,1-2-4.08c-.17-7.36,2.15-22.08,8.61-25.82,3.08-1.78,10.68-3.9,12.37.65,1.06,2.88,1.45,6.41,2,10.14,8.88-4.65,6.77,13.14.06,11.06-2.27,4.58-2.47,6.88-3.43,11.3,4,4,27.68,20.85,14.78,59.36C101.52,127.79,95.16,134.59,82.85,134.79Z"/><path class="cls-2" d="M74.43,49.25s-7.33-3.91-15.76,2.24C54.12,54.8,52.26,61.8,52.26,61.8s1,13.67,1.79,14.86c7.87,12.49,9.67,13.08,19.27,24.2,2.75,3.18,10.83,10.28,10.83,10.28s5.85-15.36,8.35-22c.78-2.09,2.22-6.67,2.22-6.67s11.28,3.36,16,2.91C108.41,60.66,92.08,52.5,92.08,52.5s-7,9.08-12.91,9.37c-3.53.17-5.25-1.76-5.61-6.2C73.21,51.44,74.43,49.25,74.43,49.25Z"/><path class="cls-1" d="M50.91,67.35c0,6.27.27,18.1,2.3,18.1s7.33-12.63,5.06-18.1C55.89,61.63,56.62,56,54.59,56S50.91,61.07,50.91,67.35Z"/><path class="cls-3" d="M101.17,21.83c0,4.68-11.16,6.35-14.71,6.35s-8.88-1.67-8.88-6.35,2.88-8.48,6.42-8.48S101.17,17.15,101.17,21.83Z"/><polygon class="cls-2" points="37.14 7.64 30.08 0.12 29.6 11.21 37.14 7.64"/><ellipse class="cls-1" cx="17.76" cy="44.02" rx="4.84" ry="11.71" transform="translate(-19.69 14.85) rotate(-30.12)"/><path class="cls-1" d="M21.76,51.72c-2.06-6.76.23-12,2.83-12.34s4.24,6.78,5,13.33S28.54,66.06,26,66.42C24.13,61.3,23.68,58,21.76,51.72Z"/><ellipse class="cls-1" cx="12.88" cy="48.75" rx="4.84" ry="11.71" transform="matrix(0.87, -0.5, 0.5, 0.87, -22.72, 13.04)"/><ellipse class="cls-1" cx="7.22" cy="54.35" rx="4.84" ry="11.71" transform="translate(-26.3 10.96) rotate(-30.12)"/><path class="cls-2" d="M79.88,33.63a33.59,33.59,0,0,1,4,1.22c.1-.18.2-.37.29-.57.89-2.05.76-4.15-.31-4.69s-2.64.67-3.54,2.72A7.74,7.74,0,0,0,79.88,33.63Z"/><path class="cls-3" d="M83.13,32.8c.39-.87.33-1.77-.13-2s-1,.19-1.38.91l.69.68-1,0c-.19.72-.09,1.37.29,1.56S82.75,33.68,83.13,32.8Z"/><path class="cls-1" d="M75.69,26.58c0-.06-5.09,8.41-5.09,8.41s8,1.69,7.69,1.59S75.69,26.58,75.69,26.58Z"/><path class="cls-2" d="M72.65,38.53s8.46,1.9,8.46,1.9a13.12,13.12,0,0,1-4.52,2.39,15,15,0,0,1-4.28.36Z"/></g></g></svg>