<svg xmlns="http://www.w3.org/2000/svg" viewBox="0 0 90.19 122.91"><defs><style>.cls-1{fill:#2161ad;}.cls-2{fill:#fff;}.cls-3{fill:#fe7dcb;}.cls-4{fill:#f04f9b;}</style></defs><title>Ресурс 2</title><g id="Слой_2" data-name="Слой 2"><g id="Layer_1" data-name="Layer 1"><path class="cls-1" d="M31.85,78.15S-2.4,73.13.13,48.61C2.71,23.78,25,8.08,41.63,4.73c17.22-3.46,27.23,8.79,32.24,20.32,4,9.12,3.79,17.6-4.34,28.15,3.92,7.29,6,13.23,5,23.13-1.45,14-8.66,18.51-8.66,18.51a143,143,0,0,0-29.26,8.8A191.21,191.21,0,0,0,4.9,120.46s-1-7.37,3.6-17.12C16.31,86.67,31.85,78.15,31.85,78.15Z"/><ellipse class="cls-2" cx="52.58" cy="102.32" rx="39.46" ry="16.74" transform="translate(-31.25 23.54) rotate(-19.58)"/><path class="cls-3" d="M68.7,27.17c4.09,28.9-7.52,49-21.76,47.75-10.18-.87-21.78-10.55-24.32-25.73a40.15,40.15,0,0,1,1.06-16.53c2.73-10.33,8.86-19.29,15.46-20.29C49.23,10.85,66.54,11.94,68.7,27.17Z"/><path class="cls-3" d="M37.79,63.78c.41,1.34-1.18,37.89-1.18,37.89L67,94l2.49-61Z"/><ellipse class="cls-4" cx="50.56" cy="46.07" rx="6.56" ry="6.22"/><polygon class="cls-3" points="26.23 52.29 30.72 50.12 32.89 27.06 26.23 52.29"/><path class="cls-2" d="M40,41.33S38.18,29.6,46.89,28.06c6.4-1.13,8.09,7.76,8.09,7.76a27.22,27.22,0,0,0-7.17,1A23.86,23.86,0,0,0,40,41.33Z"/><path class="cls-2" d="M22.68,37.75a34.25,34.25,0,0,0-.39,8.76c1.14-.9,4.73-1.18,4.73-1.18S26.06,39.16,22.68,37.75Z"/><path class="cls-1" d="M48.59,10.81c17.6-.24,11.77,12.87,11.77,12.87L19.72,37.47l6.07-17.62A33.49,33.49,0,0,1,48.59,10.81Z"/><path class="cls-1" d="M47.93,19.4a19,19,0,0,1,13.4,8.66c8.2,13,7.37,25.28,7.37,25.28l4.09-19s-3.43-15-3.72-15-8.71-5.84-8.71-5.84Z"/><path class="cls-4" d="M31.31,59.24c-.33-1.8-.57-4.56,1.68-4.94,1.33-.23,2.57,2.18,2.57,2.18s1.74-2.94,3.19-2.63c2.52.53,1.85,4.89,1.85,4.89s-1,6.23-5,5.87C32.27,64.32,31.62,60.9,31.31,59.24Z"/><ellipse class="cls-1" cx="45.79" cy="35.97" rx="1.39" ry="2.95"/><ellipse class="cls-1" cx="23.2" cy="43.56" rx="1.05" ry="2.23"/><path class="cls-1" d="M26.85,52.29l1.4-11.71.19-1.66c.1-.8-1.15-.79-1.25,0L25.8,50.63l-.2,1.66c-.09.8,1.16.79,1.25,0Z"/><path class="cls-1" d="M26.39,53.19l5.13-1.58.75-.23c.76-.23.44-1.44-.34-1.2l-5.12,1.57-.75.23a.63.63,0,0,0,.33,1.21Z"/><path class="cls-1" d="M38.27,43.71l1.88-1.66a.63.63,0,0,0-.89-.89l-1.88,1.67a.63.63,0,0,0,0,.88.65.65,0,0,0,.89,0Z"/><path class="cls-1" d="M55.12,36.35,58.31,36a.64.64,0,0,0,.63-.63.63.63,0,0,0-.63-.62l-3.19.33a.63.63,0,0,0-.62.62c0,.31.27.67.62.63Z"/><path class="cls-1" d="M56.65,70.05A16.86,16.86,0,0,1,38,72.14c-.71-.37-1.35.71-.63,1.08a18.16,18.16,0,0,0,20.16-2.29c.61-.52-.28-1.4-.88-.88Z"/><ellipse class="cls-2" cx="54.45" cy="6.07" rx="2.13" ry="6.07"/><ellipse class="cls-2" cx="54.17" cy="21.1" rx="2.13" ry="6.07"/><ellipse class="cls-2" cx="45.64" cy="13.91" rx="6.4" ry="2.02"/><ellipse class="cls-2" cx="63.12" cy="14.04" rx="6.4" ry="2.02"/><ellipse class="cls-2" cx="60.6" cy="8.47" rx="6.23" ry="2.08" transform="translate(11.3 44.72) rotate(-44.29)"/><ellipse class="cls-2" cx="48.47" cy="19.52" rx="6.23" ry="2.08" transform="translate(0.14 39.39) rotate(-44.29)"/><ellipse class="cls-2" cx="48.52" cy="8.34" rx="2.07" ry="6.25" transform="translate(9.88 38.85) rotate(-48.05)"/><ellipse class="cls-2" cx="61.04" cy="19.92" rx="2.07" ry="6.25" transform="translate(5.42 52) rotate(-48.05)"/><ellipse class="cls-4" cx="54.04" cy="14.11" rx="4.06" ry="3.53"/></g></g></svg>