<svg xmlns="http://www.w3.org/2000/svg" viewBox="0 0 116.65 107.96"><defs><style>.cls-1{fill:#2161ad;}.cls-2{fill:#fbfcfd;}.cls-3{fill:#fd7fcb;}</style></defs><title>Ресурс 11</title><g id="Слой_2" data-name="Слой 2"><g id="Layer_1" data-name="Layer 1"><path class="cls-1" d="M30.67,56.63c-13.8-25.08-4-42.36,5.92-50.77,17.78-15.07,49.69,0,45.61,32.4.06.71-.84,1.91-.72-.13-.3-9.63-4-18.43-12.54-23.6C43.25,2.28,39.67,34.82,49,50.3c0,0-.6,4.51-7.17,6.62A17.8,17.8,0,0,1,30.67,56.63Z"/><path class="cls-2" d="M14.08,92.82C20.86,108.11,38.53,111,59.88,104c20.84-6.77,35.94-22.15,27.26-36.45-7.94-13.11-27.65-8-42.64,8.79C33.56,58.89,7.31,77.53,14.08,92.82Z"/><path class="cls-3" d="M3.51,106.23c7.25,6,43.74-18,61-31.95s6.71-42.76-21-36.44C18.87,43.47-10.18,94.8,3.51,106.23Z"/><path class="cls-1" d="M47.2,42.38c8.24-30,29-36.06,43.07-35.1C115.54,9,129,45,101.29,67.08c-.49.61-2.11.86-.47-.64,7.06-7.74,10.83-17.41,8.11-27.9-10.75-29-38.2-6.35-42.67,12.76,0,0-3.88,3.06-10.61-.27A19.36,19.36,0,0,1,47.2,42.38Z"/><path class="cls-2" d="M46.08,61.19l-10.91-.93s1.72-6,6.88-5.8C46.65,54.6,46.08,61.19,46.08,61.19Z"/><ellipse class="cls-1" cx="6.6" cy="95.55" rx="3.78" ry="1.8" transform="translate(-87.52 77.8) rotate(-75.36)"/><path class="cls-3" d="M69.7,68c-.78-3.52-43.19,27.42-48.61,28.62s-9.18,5-8.4,8.55,4.74,4,11.63-.4C29,101.83,70.48,71.56,69.7,68Z"/><path class="cls-1" d="M41.51,56.52c-.82-.14-1.56.67-1.85,1.89,1,.52,2.11,1.1,2.11,1.1l-2.18.75c.18,1.25.81,2.23,1.6,2.37,1,.17,1.89-1.06,2-2.74S42.52,56.69,41.51,56.52Z"/><path class="cls-1" d="M13.69,106.59a24.53,24.53,0,0,0,7-4.18c.6-.54-.28-1.42-.88-.89a24,24,0,0,1-6.71,4,.62.62,0,0,0-.22.85.63.63,0,0,0,.85.22Z"/><ellipse class="cls-2" cx="45.09" cy="75.64" rx="7.38" ry="4.05" transform="translate(-15.26 11.51) rotate(-12.46)"/></g></g></svg>