<svg xmlns="http://www.w3.org/2000/svg" viewBox="0 0 85.08 112.45"><defs><style>.cls-1{fill:#2161ad;}.cls-2{fill:#fefcfd;}.cls-3{fill:#fd81cc;}</style></defs><title>Ресурс 12</title><g id="Слой_2" data-name="Слой 2"><g id="Layer_1" data-name="Layer 1"><path class="cls-1" d="M51.79,105.43c-1.1,4.21-3,7.07-6.27,7-4.31-.06-6.05-3.75-7.36-7.27-7.3,10.12-15,.07-6-9.21,2.22-2.3,2.55-3.28,5.22-4,5.86,1.17,11.66,1,17.93.76C68.25,99.52,62.36,118.36,51.79,105.43Z"/><path class="cls-2" d="M34.77,21.86c8.71.59,6.63,12.57-1.67,12.1C25.14,33.88,26.72,21.63,34.77,21.86Z"/><path class="cls-2" d="M53.54,21.86c8.71.59,6.63,12.57-1.67,12.1C43.91,33.88,45.49,21.63,53.54,21.86Z"/><path class="cls-2" d="M57,27.62c.06,5.05-8.16,6.5-8.15.84C48.76,23.37,56.94,21.39,57,27.62Z"/><path class="cls-2" d="M34.53,24c5.43.36,4.13,7.83-1,7.53C28.53,31.53,29.51,23.89,34.53,24Z"/><path class="cls-1" d="M11.9,43.69C3.67,41.54,4.51,33.31,6.11,27.74-7.68,18.21,4.74-2.86,15.19,1.26,16,5,13.74,8.81,14,12.83c2.32,6.87,7.36-16.66,10.74,1.68.94,5.25-6.77,10-10.06,12.06,1.89,5,.09,8.12,1.44,10.16,7.45.15,9.64,4,16.67,8.31C36.27,57.88,15.51,52.25,11.9,43.69Z"/><path class="cls-1" d="M73.17,43c8.24-2.16,7.4-10.39,5.8-16C92.76,17.48,80.34-3.59,69.88.53,69.1,4.24,71.34,8.08,71,12.1,68.72,19,63.68-4.56,60.3,13.78c-.94,5.25,6.77,10,10.06,12.06-1.89,5-.09,8.12-1.44,10.16-7.45.15-9.64,4-16.67,8.31C48.81,57.15,69.57,51.52,73.17,43Z"/><path class="cls-3" d="M36.23,72.88c-10-5.92,1.36-7-2.6-11.45-11-9.62-5.55-15.8-.61-25.07.6-3.71-4.62-9.22,2.23-8.66,2,.72,2.74,3.75,3.73,5.91,1.46,2.65,6.57,3.62,7.46.5,2.38-8.42,9.58-8,7.39-1.92C53.19,34,51.6,35.61,52.4,37,56,43.12,61,50.77,53.7,59.65a3.71,3.71,0,0,0-.11,4.59c1.25,1.71,3.63,3.54,1.19,5.93C52.9,72,51.27,71.88,52.69,74c1.6,3.06,1.9,3.84,1.35,5.27-4.64,5,5.3,11.18-.26,14.91-1.94,1.29-3.37.64-5.93-.88-2.18,3.57-5.05,2.16-6.78-.11C25.26,98.06,39.89,83.6,35.22,82,31.44,78.89,31.25,76.86,36.23,72.88Z"/></g></g></svg>