<svg xmlns="http://www.w3.org/2000/svg" viewBox="0 0 114.25 118.3"><defs><style>.cls-1{fill:#fbfcfd;}.cls-2{fill:#2161ad;}.cls-3{fill:#fd7fcb;}.cls-4{fill:#f04f9b;}.cls-5{fill:#fff;}</style></defs><title>Ресурс 15</title><g id="Слой_2" data-name="Слой 2"><g id="Layer_1" data-name="Layer 1"><path class="cls-1" d="M0,109.38c0,8.07,15.61,13.23,36.57,4,18.24,5.28,37.3,4,37.3-4S57.33,94.76,36.94,94.76,0,101.3,0,109.38Z"/><path class="cls-1" d="M33.28,108c0,8.07,22.71,13.31,43.67,4.1,18.23,5.28,37.3,4,37.3-4S96.18,93.5,75.78,93.5,33.28,100,33.28,108Z"/><path class="cls-2" d="M45.05,66.93c0,5.1,3.18,9.24,7.11,9.24S60,71.72,60,66.62s-3.9-8.93-7.84-8.93S45.05,61.83,45.05,66.93Z"/><polygon class="cls-3" points="20.82 107.43 52.65 107.44 52.24 46.36 23.67 44.84 20.82 107.43"/><ellipse class="cls-2" cx="25.06" cy="34.31" rx="14.87" ry="12.27" transform="translate(-10.63 57.37) rotate(-86.73)"/><path class="cls-3" d="M42.81,54.7c-2.38,10.21-14,20.22-23.69,16.51C7.93,66.93,15.7,39,19.63,29.64c3.8-9.08,22.8-6.21,26.8,1.92C49.54,37.88,44.92,45.67,42.81,54.7Z"/><path class="cls-2" d="M12.24,12C11.7.26,22.6-2.8,31.74,5.28A17.23,17.23,0,0,0,39.6,9.65c8.61,1.3,18.66,3.46,21.83,12.9,1.65,4.92-1.62,7.36-.3,11,2.21,4.91,8.52,9.46,2.84,15.09-6.15,4.73-4.59,6.35-3,11.26.84,2.53-.64,10.54-7,10.82-7.93.36-4.93-15.22-4.93-15.22s-8.4-2-9.07-2.3c7.42-19.13.75-22.4-6.92-22.72C29.48,30.87,12.93,27.13,12.24,12Z"/><ellipse class="cls-2" cx="22.77" cy="8.06" rx="9.36" ry="8.06"/><ellipse class="cls-2" cx="40.43" cy="8.06" rx="9.36" ry="8.06"/><path class="cls-3" d="M46.13,48.51c.91-2.12,2.79-6.4,2.79-6.4a15,15,0,0,1,2.46,0,7.26,7.26,0,0,1,6.12,8.62,8,8,0,0,1-9.22,6,7.62,7.62,0,0,1-4.59-2.58C44.5,52.32,45.31,50.41,46.13,48.51Z"/><ellipse class="cls-4" cx="34.21" cy="51.9" rx="4.03" ry="3.09" transform="translate(-27.3 60.87) rotate(-64.91)"/><path class="cls-2" d="M29.22,37.8c.71.28,1.37.5,2,.73s1.26.45,1.86.7,1.19.5,1.77.79,1.17.59,1.83.93l0,0a.76.76,0,0,0,1-.21.59.59,0,0,0,0-.5,5.06,5.06,0,0,0-1.45-1.89,7.87,7.87,0,0,0-2.15-1.27,8.65,8.65,0,0,0-2.44-.61,7,7,0,0,0-2.46.15.57.57,0,0,0-.42.77.69.69,0,0,0,.39.38Z"/><ellipse class="cls-2" cx="30.36" cy="43.93" rx="0.94" ry="1.02"/><path class="cls-2" d="M16.62,34.86a7.47,7.47,0,0,0,1,.17q.48.06,1,.09c.65,0,1.28.11,2,.11h0a.75.75,0,0,0,.8-.68A.66.66,0,0,0,21,34a5.73,5.73,0,0,0-2.23-.67,6.64,6.64,0,0,0-1.18,0,3.82,3.82,0,0,0-1.15.25.65.65,0,0,0-.4.92.8.8,0,0,0,.5.38Z"/><ellipse class="cls-2" cx="18.42" cy="40.65" rx="0.94" ry="1.02"/><path class="cls-5" d="M28,55.48l-12.42-4s-.29,6.19,3.59,7.86S28,55.48,28,55.48Z"/><path class="cls-2" d="M23.56,37.11l-4,8.54L19,46.87a.64.64,0,0,0,.37.92l4.56,1.12c.79.19,1.12-1,.34-1.2l-4.56-1.12.37.91,4-8.54.57-1.22c.34-.73-.74-1.36-1.08-.63Z"/><path class="cls-2" d="M34.31,66.7a14,14,0,0,1-5.44,3.63,19.25,19.25,0,0,1-4.73,1,10.11,10.11,0,0,1-1.23,0c-.11,0-.63-.06-.31,0-.79-.12-1.13,1.08-.33,1.21a7.83,7.83,0,0,0,1.81,0,20.41,20.41,0,0,0,5.12-1.08,15.56,15.56,0,0,0,6-4c.54-.6-.34-1.48-.89-.89Z"/><path class="cls-2" d="M51.56,46.87l-1.75,4.81-.25.69a.62.62,0,0,0,.44.77.64.64,0,0,0,.77-.43l1.75-4.81.25-.69a.63.63,0,0,0-1.21-.34Z"/><ellipse class="cls-2" cx="97.82" cy="67.81" rx="7.12" ry="9.24"/><polygon class="cls-3" points="66.49 107.86 98.32 107.88 97.89 47.24 69.32 45.72 66.49 107.86"/><path class="cls-2" d="M55.55,29.51C54.82,37.68,62.65,49.3,69.39,50s12.8-5.36,13.52-13.54S78.76,21.09,72,20.39,56.27,21.33,55.55,29.51Z"/><path class="cls-3" d="M88.46,55.59c-2.38,10.21-14,20.22-23.69,16.51-11.19-4.29-3.42-32.2.51-41.57,3.8-9.08,22.8-6.22,26.8,1.91C95.19,38.76,90.57,46.55,88.46,55.59Z"/><path class="cls-2" d="M57.89,12.9C57.35,1.14,68.25-1.91,77.39,6.16a17.25,17.25,0,0,0,7.86,4.38c8.61,1.3,18.66,3.45,21.83,12.9,1.65,4.91-1.62,7.36-.3,11,2.21,4.91,8.52,9.47,2.84,15.1-6.15,4.72-7.42,6.37-5.8,11.27.84,2.53,2.2,10.52-4.14,10.8-7.93.36-4.93-15.22-4.93-15.22s-8.4-2.05-9.06-2.29C93.1,35,86.43,31.72,78.76,31.4,75.13,31.75,58.58,28,57.89,12.9Z"/><ellipse class="cls-2" cx="68.42" cy="8.94" rx="9.36" ry="8.06"/><ellipse class="cls-2" cx="86.09" cy="8.94" rx="9.36" ry="8.06"/><path class="cls-3" d="M91.78,49.39c.91-2.12,2.79-6.4,2.79-6.4A15,15,0,0,1,97,43a7.28,7.28,0,0,1,6.13,8.62,8,8,0,0,1-9.23,6,7.64,7.64,0,0,1-4.59-2.57C90.15,53.2,91,51.3,91.78,49.39Z"/><ellipse class="cls-4" cx="79.86" cy="52.78" rx="4.03" ry="3.09" transform="translate(-1.8 102.72) rotate(-64.91)"/><path class="cls-2" d="M74.87,38.68c.71.28,1.37.5,2,.73s1.26.46,1.86.7,1.19.5,1.78.79,1.16.59,1.82.93l0,0a.76.76,0,0,0,1-.21.56.56,0,0,0,0-.5,5.06,5.06,0,0,0-1.45-1.89A7.87,7.87,0,0,0,79.77,38a9,9,0,0,0-2.44-.61,6.93,6.93,0,0,0-2.45.15.57.57,0,0,0-.43.77.68.68,0,0,0,.4.38Z"/><ellipse class="cls-2" cx="76.01" cy="44.81" rx="0.94" ry="1.02"/><path class="cls-2" d="M62.27,35.74a7.75,7.75,0,0,0,1,.17c.32,0,.64.07,1,.09.64,0,1.27.11,2,.11h0a.75.75,0,0,0,.8-.68.69.69,0,0,0-.35-.57,5.73,5.73,0,0,0-2.23-.67,6.64,6.64,0,0,0-1.18,0,4.55,4.55,0,0,0-1.15.25.66.66,0,0,0-.4.93.83.83,0,0,0,.5.37Z"/><ellipse class="cls-2" cx="64.07" cy="41.53" rx="0.94" ry="1.02"/><path class="cls-5" d="M73.68,56.37l-12.42-4s-.29,6.19,3.59,7.87S73.68,56.37,73.68,56.37Z"/><path class="cls-2" d="M69.21,38l-4,8.54-.57,1.23a.63.63,0,0,0,.37.91l4.57,1.12a.62.62,0,0,0,.33-1.2l-4.56-1.12.37.92,4-8.55.57-1.22c.34-.73-.74-1.36-1.08-.63Z"/><path class="cls-2" d="M80,67.58a14,14,0,0,1-5.45,3.63,19.15,19.15,0,0,1-4.73,1,10.12,10.12,0,0,1-1.23,0c-.1,0-.63-.07-.31,0-.79-.12-1.13,1.09-.33,1.21a7.83,7.83,0,0,0,1.81,0,20.42,20.42,0,0,0,5.12-1.09,15.56,15.56,0,0,0,6-4c.54-.59-.34-1.48-.88-.89Z"/><path class="cls-2" d="M97.21,47.76l-1.75,4.8-.25.7a.63.63,0,0,0,1.21.33l1.75-4.81.25-.69a.63.63,0,1,0-1.21-.33Z"/></g></g></svg>