<svg xmlns="http://www.w3.org/2000/svg" viewBox="0 0 113.04 114.85"><defs><style>.cls-1{fill:#fff;}.cls-2{fill:#fd81cb;}.cls-3{fill:#fdf9fc;}.cls-4{fill:#2161ad;}</style></defs><title>Ресурс 6</title><g id="Слой_2" data-name="Слой 2"><g id="Layer_1" data-name="Layer 1"><path class="cls-1" d="M40.18,100.16c-6.25,7.64-7,14.28-2.1,14.39,18.46.4,25.25.29,36.37.28,4.69,0,5.26-5,1.22-11.75a34.87,34.87,0,0,0-11.46-11.6v-.36L51.1,91C50.54,91.32,43.36,96.26,40.18,100.16Z"/><path class="cls-2" d="M99.59,19.75c-2.54-1.68-8.37-4.28-12.4-1.39-6.29,4.51-15.42,15.49-23.52,7.86-.21-7.73,0-5.89-1.62-13.73C64.12,7.36,63.92.79,56.88,2.43,52.75,4.05,52.74,9.2,54.31,12.8a33.7,33.7,0,0,0-2,12.55s-12.53,6.3-18.15-2.29C31.84,19.5,24,14,18.64,17.43c-3.48,2.24-10.93,8-8.15,10.29,3.31-.13,7.54-5.56,11.67-2.09,5.76,4.84,8.1,12.88,15.28,15,6.1,1.84,9.84-1.59,14.18-4.77C52.21,56.09,51.16,91,51.16,91l-.06,0,13.11.13.41-54S78.48,43,83.76,36.74c4.87-5.78,3.74-16.39,16.83-9.42C105.8,30.09,105.19,23.45,99.59,19.75Z"/><path class="cls-1" d="M64.13,7.16C64.17,3.24,61.56,0,58.3,0s-5.93,3.12-6,7.05a7.81,7.81,0,0,0,1.77,5.14l8.15.08A7.8,7.8,0,0,0,64.13,7.16Z"/><polygon class="cls-3" points="34.36 83.11 19.22 34.36 4.95 82.79 3.33 82.32 19.18 28.53 35.97 82.61 34.36 83.11"/><path class="cls-4" d="M39.54,77.82C29.55,97,9.21,95.6,0,77.71,0,77.71,26.34,76.93,39.54,77.82Z"/><polygon class="cls-3" points="108.38 83.85 93.24 35.09 78.97 83.53 77.35 83.06 93.2 29.27 109.99 83.35 108.38 83.85"/><path class="cls-4" d="M72.71,77.41c5.4,20.41,33,23.87,38.94,2.86.34-1,1.36-3.49,1.39-3.76Z"/></g></g></svg>