<svg xmlns="http://www.w3.org/2000/svg" viewBox="0 0 106.64 119.94"><defs><style>.cls-1{fill:#fd7fcb;}.cls-2{fill:#fefcfd;}.cls-3{fill:#2161ad;}</style></defs><title>Ресурс 1</title><g id="Слой_2" data-name="Слой 2"><g id="Layer_1" data-name="Layer 1"><path class="cls-1" d="M44.81,116.34a4.11,4.11,0,0,0-5.87-1c-2.46,1.73-5,2-7.17-.18-2.25-1.51-2.62-6.53-5.86-4.47-3.05,1.94-7.9,2.47-10.9-.74-2.21-1.93-1.21-5.62-4.76-6.1C-3.32,102,13.68,89.23,6,85A11,11,0,0,1,.21,73.26c2.2-10.9,12.44-25.5,11.06-32.85-8.39-15.29,9-15.16,15.62-22.52C33.49-8.5,45,16.25,51.69,5.74A11.75,11.75,0,0,1,57.27,1C66.2-2.43,71.84,3.39,75.08,11.29A6.05,6.05,0,0,0,79.88,15c11.44,1.5,5.61,7.49,12.1,14.44,10.09,5.06,10.81,9,6.75,19.07,2.11,9.85,6.64,14.68,7.79,24.19a12.8,12.8,0,0,1-5,12.32,5.9,5.9,0,0,0-2.21,5.67,89.24,89.24,0,0,1,1.17,10.55c.71,7.12-6,9.55-10.17,8.12a3.34,3.34,0,0,0-4,1.76c-1.83,3.63-5.78,5.3-9.21,2.67a3.31,3.31,0,0,0-4.88.82c-2.19,3.57-6.36,5.15-10.42,1.63a4.39,4.39,0,0,0-6.1.46C52.8,119.91,48.54,122.15,44.81,116.34Z"/><path class="cls-2" d="M52.15,30.39c11.77,0,19.56,4.32,14.59,15a10.51,10.51,0,0,0-.92,7c1.1,5.07,2,10.18,3.06,15.28A19.36,19.36,0,0,0,74.12,78.1c5.61,5.67,2.8,15.53-5.24,18.62-3.53,1.36-6.43,2.49-7.77,6.61-1,3.18-4.37,4-7.68,3.82-3.55-.21-7-1.24-8.21-4.78-1-2.78-2.67-3.54-5.22-4.18-8.58-2.14-12.36-10.08-7.24-17.4,5.38-7.67,5.53-16.31,7.26-24.74a16,16,0,0,0-1.67-10.79C33.33,35.09,40.84,30.37,52.15,30.39Z"/><path class="cls-3" d="M52.68,97.65a28.94,28.94,0,0,0,17.46-6,6.26,6.26,0,0,0-1.47-10.59c-.52-.23-1-.45-1.59-.67a34.42,34.42,0,0,0-15-2.26,31.12,31.12,0,0,0-13.48,3.65l-.14.07a6.27,6.27,0,0,0-.69,10.84C42.25,95.6,47.72,97.69,52.68,97.65Z"/><path class="cls-3" d="M44.89,37.23c-1.07,0-2,1.34-2.18,3.13,1.18.4,2.53.87,2.4.87s-1.36.48-2.39.89c.22,1.78,1.11,3.11,2.17,3.11,1.23,0,2.23-1.79,2.23-4S46.12,37.23,44.89,37.23Z"/><path class="cls-3" d="M60.29,37.23c-1.06,0-1.95,1.34-2.17,3.13,1.18.4,2.52.87,2.4.87s-1.36.48-2.4.89c.23,1.78,1.11,3.11,2.17,3.11,1.23,0,2.23-1.79,2.23-4S61.52,37.23,60.29,37.23Z"/><ellipse class="cls-2" cx="44.7" cy="95.7" rx="1.57" ry="4.06"/><ellipse class="cls-2" cx="62.01" cy="94.49" rx="1.57" ry="4.06"/><ellipse class="cls-2" cx="47.95" cy="98.39" rx="2.18" ry="3.63"/><path class="cls-3" d="M53.57,76.29s-5-5.9-5-9.4c0-7.8,9.29-7.69,9.6,0C58.23,69.63,53.57,76.29,53.57,76.29Z"/><ellipse class="cls-2" cx="51.74" cy="98.39" rx="2" ry="3.63"/><ellipse class="cls-2" cx="55.53" cy="98.24" rx="2.21" ry="3.63"/><ellipse class="cls-2" cx="59.54" cy="97.95" rx="2.19" ry="3.63"/><path class="cls-1" d="M62,78.62a91.14,91.14,0,0,0-17.31.55c-.32,1.41,0,7.06,0,8.43A25.55,25.55,0,0,0,50,103a5.53,5.53,0,0,0,9.35-1.3c.2-.46.4-.93.59-1.4a30.48,30.48,0,0,0,2-13.22C61.84,85.4,62.31,80,62,78.62Z"/><ellipse class="cls-2" cx="45.29" cy="80.75" rx="1.57" ry="5.47"/><ellipse class="cls-2" cx="62.16" cy="80.75" rx="1.57" ry="5.47"/><ellipse class="cls-2" cx="48.39" cy="79.3" rx="1.81" ry="3.29"/><path class="cls-2" d="M54.57,78.18C54.57,80,53,82.59,52,82.59s-2.25-2.32-2.25-4.13A2.22,2.22,0,0,1,52,76C53,76,54.57,76.36,54.57,78.18Z"/><path class="cls-2" d="M58.12,78.23c0,1.82-1.51,4.23-2.51,4.23S53.8,81,53.8,79.17s.81-3.29,1.81-3.29A2.33,2.33,0,0,1,58.12,78.23Z"/><ellipse class="cls-2" cx="59.23" cy="78.9" rx="1.81" ry="3.29"/></g></g></svg>