<svg xmlns="http://www.w3.org/2000/svg" viewBox="0 0 101.23 122.68"><defs><style>.cls-1{fill:#fff;}.cls-2{fill:#2161ad;}.cls-3{fill:#fe7dcb;}</style></defs><title>Ресурс 5</title><g id="Слой_2" data-name="Слой 2"><g id="Layer_1" data-name="Layer 1"><path class="cls-1" d="M86.91,81.65c0,6.82-14.93,22.17-32.76,24.7s-33-.9-34-7.65,13.28-31,31.11-33.57S87,70.73,86.91,81.65Z"/><path class="cls-1" d="M90.28,101.58c1.18,8.35-18.88,17.07-39,18.3s-32.07.31-33.26-8S32,94.4,52,91.57,89.09,93.22,90.28,101.58Z"/><path class="cls-1" d="M24.27,0S13.07,4.2,4.09,18.2c-2.64,4.12-5.79,12.66-3,19.39,1.73,4.21,5,8.15,12.08,11.94,2.7,1.44,13.9,5.33,13.9,5.33l8.79-12.28S22.91,40.47,17.26,34.1c-2-2.29-3.31-9.26-2.89-12.3,1.31-9.28,7.19-16.68,9.52-19.3A2.3,2.3,0,0,0,24.31.12Z"/><path class="cls-2" d="M21.88,53.19s-3.52.69-8.79,5.52C10.84,60.77,2.93,69.21,5.67,72c3.2,3.27,15-5.53,15.27-5.52s6.26-5.41,6-5.93l-.78-6.75Z"/><path class="cls-3" d="M21.22,46.4c-.15.44.86,5.47.91,6.26.26,4.43-1.82,6.25-2.68,9.08-1.22,4-1.11,9.37-1.26,12.47-.12,2.54-6.26,35.1-3.75,43.61,2.34,7.9,13.15,3.72,16.16.8,1.26-1.23,26.58-25,29.42-29.26C67.56,77.94,66.14,61,66.14,61l3.53-5.69-6.06-1.67.62-5.06.6-5.17,5.71,1.08s-.82-2.86-1.29-3.89c-.85-1.86-3.43-5.53-5.18-6.39-3.17-1.54-10.48-.89-14-.62-1.67.12-5,1.73-6.59,1.3-1.33-.34-3-3.15-4.29-3.62-1.77-.64-5.65-.28-7.5.09-4.23.84-5.6,3.66-5.6,3.66s-1.39.46-3.68,5.12C21.33,42.38,21.22,46.4,21.22,46.4Z"/><path class="cls-2" d="M50.76,33.05a1.78,1.78,0,0,1-1.11,1.46,19.28,19.28,0,0,0-9.35,8c-1.78,3-3.43,9.74-8,11.42-2,.72-7.37.62-9.82-2.74a7.63,7.63,0,0,1-1.33-3.54A1.79,1.79,0,0,1,24,46l.06,0a3.51,3.51,0,0,0,3.43.18,15.17,15.17,0,0,1-1.69-5.62,12.55,12.55,0,0,1,0-1.74,1.78,1.78,0,0,1,2.9-1.26,4.27,4.27,0,0,0,.44.3,2.54,2.54,0,0,0,2.08.1,1.77,1.77,0,0,0,1.16-2c-.28-1.35-.62-3.45-.25-4.51a9.3,9.3,0,0,1,7.92-6.55S45.67,24,48.9,27.1A7,7,0,0,1,50.76,33.05Z"/><path class="cls-2" d="M61.23,65.09a2.85,2.85,0,0,1,2.26-3.83,23.24,23.24,0,0,1,7.6.7c3.9,1.35,9.4,9.36,8.59,13.4-.49,2.43-4,2-6.63.86C63.1,71.73,61.23,65.09,61.23,65.09Z"/><path class="cls-2" d="M49,58.55c-.34-.08-1,2.7-1.73,3.75,0,0-2.07,2.26-1.93,2.49.26.46,2.09-.1,2.09-.1S49.09,64,49.13,64s2.95-2.18,2.38-3.17c-.17-.3-1.32.28-1.32.28a.32.32,0,0,1-.37-.43s1.35-1.52,1-1.85-1.14.91-1.14.91a.31.31,0,0,1-.54-.19S49.23,58.61,49,58.55Z"/><path class="cls-2" d="M49.55,65.74a3.7,3.7,0,0,0-2.4,1.37c-.13.18.23,1.91,1.66.71A2.85,2.85,0,0,0,49.55,65.74Z"/><path class="cls-1" d="M93.87,8.18c-.21.74,2.72,11.06-4.49,23.6-3.79,6.6-8.42,8.9-11.7,10a46.23,46.23,0,0,1-6.4.82l-8.74.49-.92,3a12.52,12.52,0,0,0,1.79,11.07l1.06,1.47s17.1-2.76,17.6-2.87c7-1.49,20.89-11,19-30A32,32,0,0,0,93.87,8.18Z"/><path class="cls-1" d="M55.59,83c-1.64,3.26-4.76,5-7,3.89s-2.67-4.66-1-7.92,4.76-5,7-3.88S57.23,79.7,55.59,83Z"/><path class="cls-2" d="M27.26,112.76c0,5.48-3.18,9.92-7.1,9.92s-7.1-4.44-7.1-9.92,2-3.13,5.93-3.13S27.26,107.28,27.26,112.76Z"/></g></g></svg>